<?xml version="1.0" standalone="no"?>
<!DOCTYPE svg PUBLIC "-//W3C//DTD SVG 1.1//EN" "http://www.w3.org/Graphics/SVG/1.1/DTD/svg11.dtd">
<svg xmlns="http://www.w3.org/2000/svg">
<defs >
<font id="Exo2" horiz-adv-x="559" ><font-face
    font-family="Exo 2 ExtraBold"
    units-per-em="1000"
    panose-1="0 0 0 0 0 0 0 0 0 0"
    ascent="999"
    descent="-201"
    alphabetic="0" />
<glyph unicode=" " glyph-name="space" horiz-adv-x="213" />
<glyph unicode="!" glyph-name="exclam" horiz-adv-x="316" d="M248 695V445L229 223H87L68 445V695H248ZM179 170Q215 170 228 157T242 107V63Q242 27 229 14T179 0H138Q102 0 89 13T75 63V107Q75 143 88 156T138 170H179Z" />
<glyph unicode="&quot;" glyph-name="quotedbl" horiz-adv-x="384" d="M341 690L331 465H225L214 690H341ZM170 690L160 465H53L43 690H170Z" />
<glyph unicode="#" glyph-name="numbersign" horiz-adv-x="728" d="M367 690L247 0H111L231 690H367ZM618 690L498 0H362L482 690H618ZM701 521L680 414H69L90 521H701ZM659 296L638 189H27L48 296H659Z" />
<glyph unicode="$" glyph-name="dollar" horiz-adv-x="588" d="M303 704Q355 703 417 697T538 672L526 550Q483 551 421 552T299 553Q277 553 262 552T238 546T225 533T221 509Q221 485 235 473T287 447L411 399Q493 366 526 318T559 192Q559 134 546 94T501 31T420
-3T294 -14Q260 -14 195 -9T44 17L55 150Q113 149 159 148T238 146T292 145Q324 145 341 148T366 161T374 188Q374 205 369 215T351 232T317 246L184 301Q104 335 71 382T38 505Q38 565 52 603T98 663T180 694T303 704ZM263 360H313L269 -114H218L263 360ZM381
791L333 360H281L329 791H381Z" />
<glyph unicode="%" glyph-name="percent" horiz-adv-x="915" d="M204 704Q270 704 309 685T365 622T382 498Q382 420 365 375T309 311T204 292Q139 292 101 311T45 375T28 498Q28 577 45 621T100 685T204 704ZM204 607Q186 607 177 600T165 570T161 498Q161 450
164 427T177 396T204 389Q222 389 231 396T245 426T249 498Q249 546 245 569T232 600T204 607ZM710 690L315 0H204L599 690H710ZM710 398Q776 398 815 379T871 316T888 193Q888 115 871 70T815 6T710 -13Q645 -13 607 6T551 70T534 193Q534 271 551 315T606 379T710
398ZM710 302Q692 302 683 295T671 265T667 193Q667 145 670 122T683 91T710 83Q728 83 737 90T751 121T755 193Q755 242 751 265T738 295T710 302Z" />
<glyph unicode="&amp;" glyph-name="ampersand" horiz-adv-x="763" d="M338 703Q370 703 413 701T502 690L481 567Q467 567 451 567T416 568T377 569T333 570Q301 570 284 564T260 542T253 491Q253 460 259 443T280 420T325 413H718V296H315Q284 296 268 289T246
265T240 214Q240 181 245 163T266 138T311 131Q351 132 395 141T468 167L483 70Q455 41 424 23T353 -4T255 -13Q180 -13 133 5T64 64T42 176Q42 255 72 301T179 355V361Q117 367 91 406T64 520Q64 581 79 617T126 672T211 696T338 703ZM623 510V170Q623 148 632
138T663 128H718L738 10Q720 2 694 -3T642 -10T598 -13Q529 -13 491 22T452 121V359L469 510H623Z" />
<glyph unicode="&apos;" glyph-name="quotesingle" horiz-adv-x="213" d="M170 690L160 465H53L43 690H170Z" />
<glyph unicode="(" glyph-name="parenleft" horiz-adv-x="369" d="M336 790L357 713Q274 678 241 574T207 313Q207 211 222 130T269 -6T357 -88L336 -165Q179 -120 106 -4T32 312Q32 514 105 630T336 790Z" />
<glyph unicode=")" glyph-name="parenright" horiz-adv-x="369" d="M33 790Q191 746 264 630T338 312Q338 112 265 -4T33 -165L12 -88Q67 -62 100 -7T147 130T162 313Q162 470 129 574T12 713L33 790Z" />
<glyph unicode="*" glyph-name="asterisk" horiz-adv-x="455" d="M277 692L262 520L372 391L294 333L227 453L161 333L82 391L194 519L178 692H277ZM60 617L175 567L174 524L152 498L30 524L60 617ZM395 618L425 524L304 498L282 524L280 567L395 618Z" />
<glyph unicode="+" glyph-name="plus" horiz-adv-x="529" d="M496 370V235H33V370H496ZM331 532V73H198V532H331Z" />
<glyph unicode="," glyph-name="comma" horiz-adv-x="249" d="M142 170Q177 170 190 157T205 107V43Q205 -2 198 -36T178 -99T145 -155L76 -133Q86 -100 89 -68T93 0Q42 0 40 56L43 107Q44 143 57 156T105 170H142Z" />
<glyph unicode="-" glyph-name="hyphen" horiz-adv-x="395" d="M345 311V201H50V311H345Z" />
<glyph unicode="." glyph-name="period" horiz-adv-x="252" d="M147 170Q183 170 196 156T210 107V63Q210 28 197 14T147 0H105Q69 0 56 14T42 63V107Q42 142 55 156T105 170H147Z" />
<glyph unicode="/" glyph-name="slash" horiz-adv-x="572" d="M554 690L161 -76H18L411 690H554Z" />
<glyph unicode="0" glyph-name="zero" horiz-adv-x="646" d="M322 704Q427 704 489 671T578 559T605 345Q605 210 578 132T489 20T322 -14Q218 -14 156 19T68 131T41 345Q41 480 67 558T156 670T322 704ZM321 562Q293 562 275 554T246 523T231 457T227 345Q227
276 231 233T245 168T274 137T321 128Q350 128 369 136T399 167T414 233T419 345Q419 414 415 457T399 522T369 553T321 562Z" />
<glyph unicode="1" glyph-name="one" horiz-adv-x="451" d="M370 690V0H183V458Q183 479 184 499T190 540L29 505L7 622L183 690H370Z" />
<glyph unicode="2" glyph-name="two" horiz-adv-x="591" d="M291 702Q366 702 420 689T505 639T536 535Q536 498 528 467T497 402T427 321L256 151Q280 157 303 159T353 160H554V0H38V96Q38 119 44 137T64 172L221 332Q279 392 312 438T345 513Q344 528 336 534T312
543T268 546Q232 546 201 546T134 544T51 541L44 679Q95 689 136 694T216 700T291 702Z" />
<glyph unicode="3" glyph-name="three" horiz-adv-x="573" d="M279 704Q365 704 416 690T490 640T513 543Q513 494 504 458T471 399T402 369V365Q475 354 502 313T531 192Q532 119 508 74T430 7T283 -14Q221 -14 157 -9T33 5L39 139Q83 136 114 135T174 134T231
133Q276 133 301 139T336 163T346 217Q346 247 339 265T313 291T255 299L123 298V416H255Q284 416 300 421T325 436T335 460T338 492Q337 520 329 534T302 553T246 558Q192 558 142 558T54 557L48 685Q106 695 164 699T279 704Z" />
<glyph unicode="4" glyph-name="four" horiz-adv-x="649" d="M370 690L218 298Q213 285 219 278T237 270H626V164L546 147H94Q66 147 46 161T19 200T22 250L196 690H370ZM545 555V0H373V447L404 555H545Z" />
<glyph unicode="5" glyph-name="five" horiz-adv-x="561" d="M506 690L500 553H215L208 455L324 440Q385 434 424 414T486 362T518 293T527 213Q527 167 515 126T475 54T398 6T275 -12Q223 -12 160 -7T30 8L47 148Q97 145 143 142T226 139Q272 139 296 147T330
173T341 219Q343 244 337 259T315 284T276 298T217 305L109 318Q85 321 70 338T56 379L74 690H506Z" />
<glyph unicode="6" glyph-name="six" horiz-adv-x="600" d="M344 702Q371 702 420 700T522 682L514 567Q486 568 462 568T411 568T344 568Q304 568 280 560T243 526T226 453T222 327Q222 261 224 221T235 159T262 130T312 122Q350 122 367 133T388 170T393 237Q393
275 387 294T362 321T310 329Q285 329 265 323T219 301T153 260L149 326Q183 377 213 405T279 444T366 455Q445 455 489 433T550 364T568 241Q568 175 558 128T519 49T441 3T310 -12Q233 -12 181 3T99 57T56 164T42 337Q42 455 61 527T117 638T211 689T344 702Z"
/>
<glyph unicode="7" glyph-name="seven" horiz-adv-x="536" d="M451 690Q478 690 497 678T523 644T521 598L312 0H129L296 467Q302 485 310 503T330 539H28L20 690H451Z" />
<glyph unicode="8" glyph-name="eight" horiz-adv-x="632" d="M316 703Q396 703 445 692T522 659T560 602T571 518Q571 481 560 446T526 388T465 360V356Q515 352 541 326T578 259T588 172Q588 104 566 64T485 5T316 -13Q209 -13 150 5T67 63T44 172Q44 218 54
258T91 325T168 356V360Q130 364 107 387T73 446T62 518Q62 567 72 601T110 658T188 692T316 703ZM318 299Q288 299 269 295T239 281T224 253T220 207Q220 173 228 154T257 128T317 121Q356 121 376 128T404 154T411 207Q411 236 407 253T393 281T365 295T318 299ZM317
579Q282 579 263 572T237 547T230 494Q230 462 237 446T264 423T319 417Q355 417 373 423T397 445T403 494Q403 529 397 547T372 572T317 579Z" />
<glyph unicode="9" glyph-name="nine" horiz-adv-x="600" d="M291 702Q373 702 425 686T506 632T545 525T556 351Q556 234 540 162T488 52T395 1T255 -12Q225 -12 174 -9T62 8L71 124Q102 123 126 123T180 122T255 122Q296 122 320 133T357 170T373 244T377 362Q377
428 375 469T364 531T339 560T290 568Q254 568 237 557T214 521T209 453Q209 417 216 397T240 369T289 361Q314 361 334 367T380 389T444 430L448 364Q415 313 385 285T320 246T233 235Q156 235 113 262T51 337T33 449Q33 538 55 593T133 675T291 702Z" />
<glyph unicode=":" glyph-name="colon" horiz-adv-x="268" d="M148 457Q184 457 197 443T211 394V350Q211 315 198 301T148 287H106Q70 287 57 301T43 350V394Q43 429 56 443T106 457H148ZM148 171Q184 171 197 157T211 108V64Q211 29 198 15T148 1H106Q70 1 57
15T43 64V108Q43 143 56 157T106 171H148Z" />
<glyph unicode=";" glyph-name="semicolon" horiz-adv-x="268" d="M156 457Q192 457 205 443T219 394V350Q219 315 206 301T156 287H114Q78 287 65 301T51 350V394Q51 429 64 443T114 457H156ZM151 170Q186 170 199 157T214 107V43Q214 -2 207 -36T187 -99T154
-155L85 -133Q95 -100 98 -68T102 0Q51 0 49 56L52 107Q53 143 66 156T114 170H151Z" />
<glyph unicode="&lt;" glyph-name="less" horiz-adv-x="511" d="M461 533V392L185 302L461 213V71L32 232V372L461 533Z" />
<glyph unicode="=" glyph-name="equal" horiz-adv-x="574" d="M523 471V344H52V471H523ZM523 256V129H52V256H523Z" />
<glyph unicode="&gt;" glyph-name="greater" horiz-adv-x="508" d="M50 533L476 372V232L50 71V213L323 302L50 392V533Z" />
<glyph unicode="?" glyph-name="question" horiz-adv-x="529" d="M282 712Q394 712 448 675T503 557Q503 514 486 482T444 424T393 371T346 308T321 223H178Q175 275 187 314T218 383T258 438T293 481T310 520Q314 546 297 556T237 567Q187 567 154 567T94 567T33
565L28 686Q57 691 81 696T133 704T195 710T282 712ZM270 170Q305 170 318 157T332 107V63Q332 27 319 14T270 0H228Q193 0 179 13T165 63V107Q165 143 179 156T228 170H270Z" />
<glyph unicode="@" glyph-name="at" horiz-adv-x="782" d="M546 610Q637 610 685 571T733 431V137H601L586 202Q571 184 547 166T492 137T421 125Q380 125 346 139T292 181T271 251V297Q271 351 308 381T411 412H567V431Q567 459 555 471T509 483H388Q330 483
295 479T243 455T219 392T213 269Q213 203 217 162T234 98T271 67T336 56T436 54H733V-59Q660 -66 586 -70T436 -74Q331 -74 261 -67T148 -40T83 18T54 117T47 269Q47 359 53 419T78 517T135 575T234 602T388 610H546ZM567 333L473 328Q453 327 443 318T432 293V277Q432
259 443 250T476 240Q490 240 506 243T538 254T567 271V333Z" />
<glyph unicode="A" glyph-name="A" horiz-adv-x="669" d="M421 690Q444 690 461 677T485 641L674 0H482L361 476Q357 493 354 512T348 549H321Q319 532 316 513T308 476L187 0H-5L184 641Q190 664 207 677T248 690H421ZM516 299V164H153V299H516Z" />
<glyph unicode="B" glyph-name="B" horiz-adv-x="651" d="M341 698Q435 698 490 683T570 628T594 518Q594 444 566 406T470 361V355Q552 348 584 302T617 172Q617 101 592 62T513 8T374 -8Q303 -8 250 -8T152 -5T60 0L75 126Q101 125 172 124T340 123Q376 123
395 129T422 155T430 209Q430 246 422 266T395 293T338 301H74V414H336Q367 414 384 420T408 443T415 492Q415 523 408 539T383 561T332 567Q272 567 227 567T146 568T75 564L60 690Q103 694 143 695T231 697T341 698ZM243 690V0H60V690H243Z" />
<glyph unicode="C" glyph-name="C" horiz-adv-x="597" d="M342 702Q394 702 430 699T497 691T560 677L546 539Q512 541 483 541T421 542T342 543Q301 543 278 526T245 466T236 345Q236 267 245 224T277 164T342 147Q415 147 463 149T561 156L575 19Q525 2 473
-5T342 -12Q231 -12 165 22T69 135T39 345Q39 477 68 555T164 667T342 702Z" />
<glyph unicode="D" glyph-name="D" horiz-adv-x="693" d="M344 700Q429 700 488 683T584 626T637 518T654 345Q654 241 638 173T585 64T489 7T344 -10Q261 -10 192 -7T60 0L137 135Q173 132 226 131T344 129Q387 129 411 147T446 212T456 345Q456 431 446 478T412
543T344 561Q283 561 236 561T144 561L60 690Q123 694 191 697T344 700ZM248 690V0H60V690H248Z" />
<glyph unicode="E" glyph-name="E" horiz-adv-x="588" d="M210 693Q268 693 328 693T447 691T555 682L546 548H288Q266 548 254 537T242 505V185Q242 165 254 154T288 142H546L555 8Q506 3 448 1T329 -2T210 -3Q141 -3 98 38T55 145V545Q55 612 98 652T210 693ZM73
419H510V292H73V419Z" />
<glyph unicode="F" glyph-name="F" horiz-adv-x="566" d="M215 693Q271 693 330 693T445 690T548 681L539 548H294Q271 548 259 537T246 505V0H58V544Q58 611 101 652T215 693ZM76 406H502V279H76V406Z" />
<glyph unicode="G" glyph-name="G" horiz-adv-x="659" d="M355 704Q406 704 445 701T519 693T588 677L574 541Q538 542 504 542T435 543T357 544Q322 544 299 536T262 506T242 445T236 344Q236 267 245 224T277 164T338 147Q364 147 385 150T424 160T455 172L474
90Q461 70 433 46T362 4T265 -14Q187 -14 137 22T63 138T39 345Q39 479 69 557T169 670T355 704ZM615 397V0H477L452 106L435 139V397H615Z" />
<glyph unicode="H" glyph-name="H" horiz-adv-x="704" d="M248 690V0H61V690H248ZM466 434V299H240V434H466ZM643 690V0H455V690H643Z" />
<glyph unicode="I" glyph-name="I" horiz-adv-x="308" d="M247 690V0H61V690H247Z" />
<glyph unicode="J" glyph-name="J" horiz-adv-x="390" d="M332 690V131Q332 62 286 25T160 -13Q140 -13 112 -11T57 -3T15 10L35 129H82Q146 129 146 174V690H332Z" />
<glyph unicode="K" glyph-name="K" horiz-adv-x="657" d="M648 690L480 416Q468 396 453 382T424 359V356Q438 348 457 331T487 292L659 0H451L254 361L447 690H648ZM248 690V506Q248 470 242 433T222 362Q232 331 240 296T248 231V0H61V690H248ZM313 421V296H193V421H313Z"
/>
<glyph unicode="L" glyph-name="L" horiz-adv-x="547" d="M245 690V193Q245 173 258 162T293 150H529L538 9Q463 0 380 -1T216 -3Q141 -3 100 39T58 148V690H245Z" />
<glyph unicode="M" glyph-name="M" horiz-adv-x="935" d="M795 690Q860 690 862 624L888 0H717L695 548H679L591 161Q581 103 519 103H414Q353 103 341 161L253 548H237L218 0H47L72 624Q75 690 139 690H307Q367 690 378 631L446 324Q451 300 454 275T461 223H472Q476
249 479 274T487 325L553 631Q564 690 625 690H795Z" />
<glyph unicode="N" glyph-name="N" horiz-adv-x="731" d="M671 690V66Q671 0 606 0H522Q492 0 478 14T448 55L279 349Q267 374 255 403T235 461H226Q230 432 232 402T235 343V0H60V624Q60 690 126 690H209Q239 690 253 676T283 635L445 352Q459 328 472 299T497
238H506Q503 269 501 299T499 359L498 690H671Z" />
<glyph unicode="O" glyph-name="O" horiz-adv-x="698" d="M349 704Q435 704 494 687T590 630T643 520T659 345Q659 240 643 171T590 61T494 3T349 -14Q264 -14 205 3T108 60T55 170T39 345Q39 451 55 520T108 629T204 687T349 704ZM349 561Q305 561 281 543T246
478T236 345Q236 259 246 212T280 147T349 129Q393 129 417 147T451 212T461 345Q461 431 452 478T418 543T349 561Z" />
<glyph unicode="P" glyph-name="P" horiz-adv-x="633" d="M339 700Q443 700 502 680T586 609T611 469Q611 379 588 330T510 260T365 240Q317 240 270 244T181 256T111 272T71 287L74 375Q136 375 203 375T335 375Q370 376 389 383T415 411T423 469Q423 507 416
528T389 556T335 564Q238 564 169 563T75 559L60 690Q104 695 143 697T228 699T339 700ZM248 690V0H60V690H248Z" />
<glyph unicode="Q" glyph-name="Q" horiz-adv-x="698" d="M349 704Q435 704 494 687T590 630T643 520T660 345Q660 240 644 171T591 61T495 3T349 -14Q264 -14 205 3T109 60T56 170T39 345Q39 451 55 520T108 629T204 687T349 704ZM294 -30Q365 -57 441 -73T609
-103L561 -258Q465 -232 388 -197T253 -122L294 -30ZM349 561Q305 561 281 543T246 478T236 345Q236 259 246 212T280 147T349 129Q393 129 417 147T452 212T462 345Q462 431 452 478T418 543T349 561Z" />
<glyph unicode="R" glyph-name="R" horiz-adv-x="663" d="M340 700Q437 700 498 681T587 618T616 492Q616 448 604 412T561 354T479 325V319Q498 317 519 307T559 275T586 213L643 0H446L397 207Q390 239 375 249T331 260Q259 261 212 261T133 262T71 265L74 396H336Q372
396 391 403T419 428T427 480Q427 514 419 532T392 557T336 564Q237 564 169 563T75 560L60 690Q104 695 143 697T228 699T340 700ZM244 690V0H60V690H244Z" />
<glyph unicode="S" glyph-name="S" horiz-adv-x="599" d="M306 704Q359 703 423 697T547 672L535 550Q491 551 428 552T303 553Q280 553 265 552T240 546T226 533T222 509Q222 485 236 473T288 447L417 399Q501 366 534 318T568 192Q568 134 554 94T509 31T426
-3T298 -14Q263 -14 196 -9T43 17L54 149Q114 148 160 147T241 145T296 144Q330 144 348 147T373 160T380 188Q380 205 375 215T358 232T324 246L186 301Q104 335 70 382T36 505Q36 565 51 603T97 663T181 694T306 704Z" />
<glyph unicode="T" glyph-name="T" horiz-adv-x="613" d="M401 690V0H213V690H401ZM600 690V547H13V690H600Z" />
<glyph unicode="U" glyph-name="U" horiz-adv-x="696" d="M641 690V280Q641 173 614 109T524 15T358 -14Q246 -14 180 15T84 108T55 280V690H243V280Q243 221 252 188T284 142T348 129Q389 129 412 142T444 188T453 280V690H641Z" />
<glyph unicode="V" glyph-name="V" horiz-adv-x="656" d="M654 690L477 51Q471 28 454 14T412 0H245Q220 0 203 14T180 51L2 690H195L301 219Q305 200 309 180T316 141H340Q343 160 347 180T355 219L461 690H654Z" />
<glyph unicode="W" glyph-name="W" horiz-adv-x="991" d="M968 690L870 51Q866 28 848 14T805 0H640Q615 0 597 14T575 51L514 463Q511 487 509 511T504 559H486Q485 535 483 511T477 462L417 51Q414 28 395 14T352 0H186Q161 0 143 14T121 51L22 690H209L261
241Q263 217 264 190T267 133H284Q288 158 292 187T300 242L360 634Q363 659 381 674T424 690H566Q591 690 608 675T630 634L691 240Q694 214 698 186T706 133H724Q724 159 726 187T730 239L781 690H968Z" />
<glyph unicode="X" glyph-name="X" horiz-adv-x="662" d="M646 690L484 353L660 0H472L309 353L459 690H646ZM203 690L353 353L190 0H2L178 353L16 690H203ZM417 409V301H232V409H417Z" />
<glyph unicode="Y" glyph-name="Y" horiz-adv-x="635" d="M640 690L407 212H228L-5 690H189L289 456Q298 435 302 411T312 364H324Q328 386 333 411T347 457L446 690H640ZM412 321V0H224V321H412Z" />
<glyph unicode="Z" glyph-name="Z" horiz-adv-x="596" d="M348 556L555 555L240 134L33 135L348 556ZM564 135V0H33V135H564ZM555 690V555H42V690H555Z" />
<glyph unicode="[" glyph-name="bracketleft" horiz-adv-x="355" d="M327 768V656H258Q238 656 238 636V-33Q238 -53 258 -53H327V-165H158Q118 -165 93 -146T68 -75V678Q68 718 93 743T158 768H327Z" />
<glyph unicode="\" glyph-name="backslash" horiz-adv-x="572" d="M161 690L554 -76H411L18 690H161Z" />
<glyph unicode="]" glyph-name="bracketright" horiz-adv-x="355" d="M197 768Q237 768 262 743T287 678V-75Q287 -115 262 -140T197 -165H28V-53H97Q118 -53 118 -33V636Q118 656 97 656H28V768H197Z" />
<glyph unicode="^" glyph-name="asciicircum" horiz-adv-x="481" d="M307 641L451 409L381 371L246 532H238L100 371L30 409L176 641H307Z" />
<glyph unicode="_" glyph-name="underscore" horiz-adv-x="448" d="M448 0V-109H0V0H448Z" />
<glyph unicode="`" glyph-name="grave" horiz-adv-x="375" d="M111 757L330 608L280 533L39 639L111 757Z" />
<glyph unicode="a" glyph-name="a" horiz-adv-x="581" d="M327 511Q394 511 440 493T511 433T535 317V0H390L365 107L353 125V318Q352 349 338 362T285 376Q246 376 189 375T70 369L54 486Q91 493 140 498T240 507T327 511ZM463 305L462 213H249Q226 212 216 202T205
173V154Q205 135 217 125T255 114Q280 114 308 125T363 155T410 196V132Q402 116 386 92T343 44T280 3T194 -13Q149 -13 111 3T51 50T28 128V178Q28 238 70 271T186 305H463Z" />
<glyph unicode="b" glyph-name="b" horiz-adv-x="607" d="M388 511Q490 511 532 451T574 254Q574 200 564 153T526 68T449 9T317 -12Q290 -12 254 -10T179 -2T106 10T50 28L195 129Q209 124 230 120T274 115T313 113Q341 115 357 126T380 168T387 253Q387 301
381 326T359 362T313 372Q284 372 262 363T214 338L201 414Q224 440 253 462T316 497T388 511ZM231 700L233 551Q234 516 230 482T213 416L231 403V20L50 28V700H231Z" />
<glyph unicode="c" glyph-name="c" horiz-adv-x="519" d="M292 511Q321 511 356 508T426 498T489 477L471 364Q426 364 390 364T323 365Q285 365 263 356T232 321T223 249Q223 203 232 178T263 143T323 133Q340 133 365 133T420 135T480 140L497 26Q454 5 400
-3T290 -12Q196 -12 139 13T57 96T32 249Q32 346 57 403T140 485T292 511Z" />
<glyph unicode="d" glyph-name="d" horiz-adv-x="609" d="M223 511Q278 511 327 495T410 440L397 365Q371 373 349 380T292 388Q267 388 252 379T229 342T221 255Q221 203 228 178T250 144T289 135Q313 135 329 139T361 152T394 172L406 92Q382 48 335 18T213
-12Q116 -12 75 57T34 254Q34 355 55 410T119 488T223 511ZM558 700V0H414L396 94L377 107V426L383 439Q380 470 379 505T377 574V700H558Z" />
<glyph unicode="e" glyph-name="e" horiz-adv-x="578" d="M302 511Q436 511 493 467T550 337Q551 268 512 236T374 204H102V295H323Q357 295 366 305T376 341Q375 370 360 380T308 390Q273 391 255 382T229 346T222 265Q222 211 230 182T261 141T325 129Q357 129
409 131T520 140L537 30Q505 14 467 5T387 -8T305 -12Q205 -12 145 16T59 101T32 246Q32 344 59 402T145 485T302 511Z" />
<glyph unicode="f" glyph-name="f" horiz-adv-x="416" d="M272 722Q291 722 322 721T387 718T445 710L427 598H337Q304 598 292 585T280 539V0H97V564Q97 611 114 646T169 702T272 722ZM407 497V384H13V492L99 497H407Z" />
<glyph unicode="g" glyph-name="g" horiz-adv-x="594" d="M284 511Q375 511 428 495T505 445T529 353Q529 296 506 262T429 212T283 196Q193 196 139 211T60 261T36 353Q36 410 60 444T139 495T284 511ZM283 407Q238 407 222 396T205 353Q205 322 221 311T283
299Q329 299 345 310T361 353Q361 384 345 395T283 407ZM586 497L577 427L441 406L404 497H586ZM129 225L215 210Q203 205 198 191T200 163T232 147L414 131Q497 124 531 87T566 -22Q566 -89 538 -124T450 -173T290 -186Q205 -186 152 -178T68 -154T27 -110T15
-42Q15 -11 26 12T68 53T153 86L233 108L295 85L259 63Q231 43 215 32T192 12T185 -16Q185 -34 194 -43T225 -56T287 -60Q330 -60 353 -57T386 -45T396 -20Q396 -4 388 3T363 13T316 20L171 33Q130 37 106 55T72 98T67 150T87 196T129 225Z" />
<glyph unicode="h" glyph-name="h" horiz-adv-x="612" d="M420 511Q564 511 564 372V0H382V315Q382 339 373 348T339 357Q314 357 286 350T214 324L196 408Q250 459 307 485T420 511ZM233 700L234 541Q234 499 228 460T215 397L233 384V0H51V700H233Z" />
<glyph unicode="i" glyph-name="i" horiz-adv-x="291" d="M236 497V0H55V497H236ZM184 721Q237 721 237 667V615Q237 561 184 561H106Q53 561 53 615V667Q53 721 106 721H184Z" />
<glyph unicode="j" glyph-name="j" horiz-adv-x="292" d="M237 497V42Q237 -7 219 -53T169 -135T90 -193L-10 -113Q27 -75 41 -39T56 42V497H237ZM183 729Q236 729 236 675V623Q236 569 183 569H105Q52 569 52 623V675Q52 729 105 729H183Z" />
<glyph unicode="k" glyph-name="k" horiz-adv-x="586" d="M571 497L455 330Q445 312 429 297T403 276V272Q413 266 429 248T455 212L589 0H388L232 277L371 497H571ZM233 700V422Q233 386 229 349T214 278Q222 247 227 212T233 148V0H51V700H233ZM294 328V222H178V328H294Z"
/>
<glyph unicode="l" glyph-name="l" horiz-adv-x="344" d="M233 700V171Q233 149 246 139T286 129H323L343 10Q330 2 305 -3T254 -10T210 -13Q136 -13 94 23T52 124V700H233Z" />
<glyph unicode="m" glyph-name="m" horiz-adv-x="883" d="M694 511Q763 511 799 476T835 372V0H654V315Q654 338 645 347T612 357Q599 357 586 355T557 345T515 324L505 417Q551 464 595 487T694 511ZM194 497L214 397L232 384V0H51V497H194ZM392 511Q460 511
495 476T531 372V0H356V315Q356 339 346 348T312 357Q300 357 287 355T256 345T213 324L203 417Q249 464 292 487T392 511Z" />
<glyph unicode="n" glyph-name="n" horiz-adv-x="612" d="M420 511Q564 511 564 372V0H382V315Q382 339 373 348T339 357Q314 357 286 350T214 324L205 418Q257 464 312 487T420 511ZM195 497L217 397L233 384V0H51V497H195Z" />
<glyph unicode="o" glyph-name="o" horiz-adv-x="601" d="M301 511Q399 511 458 486T543 403T569 248Q569 152 543 96T458 14T301 -12Q203 -12 144 13T59 95T33 248Q33 345 59 402T144 485T301 511ZM301 384Q270 384 254 373T230 333T223 248Q223 193 230 164T253
125T301 114Q332 114 349 124T372 164T379 248Q379 304 373 333T349 373T301 384Z" />
<glyph unicode="p" glyph-name="p" horiz-adv-x="611" d="M400 509Q496 509 536 440T577 243Q577 142 556 87T493 9T389 -14Q334 -14 285 2T203 57L215 132Q241 124 263 117T319 109Q345 109 360 118T383 156T390 242Q390 299 383 328T362 366T324 376Q294 376
274 367T229 343L205 417Q221 443 251 464T319 497T400 509ZM197 497L214 413L233 398V71L227 59Q230 28 231 -7T233 -76V-185H51V497H197Z" />
<glyph unicode="q" glyph-name="q" horiz-adv-x="607" d="M291 511Q317 511 353 509T428 501T501 489T557 470L412 369Q399 375 377 379T333 384T294 385Q266 384 250 373T227 331T220 245Q220 179 234 157T291 134Q322 134 345 144T396 166L410 97Q391 73 362
48T296 5T217 -12Q117 -12 75 54T33 245Q33 304 43 353T81 437T160 491T291 511ZM376 479L557 470V-185H376V-46Q375 -11 379 24T394 90L376 102V479Z" />
<glyph unicode="r" glyph-name="r" horiz-adv-x="440" d="M193 497L215 397L233 384V0H51V497H193ZM435 511L419 344H371Q341 344 305 338T214 318L203 417Q253 464 305 487T407 511H435Z" />
<glyph unicode="s" glyph-name="s" horiz-adv-x="543" d="M252 511Q291 511 335 508T423 501T497 490L485 382Q436 382 387 382T291 383Q255 383 237 382T213 377T206 360Q206 345 219 340T267 325L389 295Q454 278 485 246T516 148Q516 86 493 52T417 3T282 -11Q248
-11 182 -8T38 8L49 117Q64 117 92 117T156 116T225 116Q274 116 299 117T332 125T341 143Q341 158 326 163T273 179L156 210Q105 224 78 246T40 298T30 367Q30 416 51 447T120 495T252 511Z" />
<glyph unicode="t" glyph-name="t" horiz-adv-x="425" d="M281 631V171Q281 149 292 139T329 129H387L407 10Q387 2 359 -3T301 -10T251 -13Q181 -13 141 23T100 125L99 631H281ZM410 497V384H14V492L110 497H410Z" />
<glyph unicode="u" glyph-name="u" horiz-adv-x="605" d="M230 497V182Q229 159 240 149T276 139Q300 139 325 146T390 172L402 79Q350 32 299 9T193 -14Q48 -14 48 125V497H230ZM554 497V0H411L389 100L371 112V497H554Z" />
<glyph unicode="v" glyph-name="v" horiz-adv-x="585" d="M583 497L428 43Q422 23 407 12T370 0H214Q194 0 179 11T157 43L2 497H194L268 206Q274 184 278 161T286 114H299Q303 137 308 160T317 206L391 497H583Z" />
<glyph unicode="w" glyph-name="w" horiz-adv-x="864" d="M852 497L741 46Q737 25 721 13T681 0H550Q526 0 508 15T487 54L446 305Q444 327 443 348T438 390H425Q424 369 422 348T416 305L376 54Q373 30 355 15T312 0H183Q161 0 144 12T123 46L12 497H193L243
198Q246 177 249 156T253 113H265Q268 135 271 156T276 198L316 444Q319 467 336 482T379 497H485Q509 497 526 482T547 443L586 198Q589 177 592 156T598 113H610Q613 135 615 156T621 198L671 497H852Z" />
<glyph unicode="x" glyph-name="x" horiz-adv-x="588" d="M574 497L436 254L585 0H404L265 254L393 497H574ZM195 497L324 254L185 0H3L152 254L14 497H195ZM387 309V203H203V309H387Z" />
<glyph unicode="y" glyph-name="y" horiz-adv-x="585" d="M583 497L416 5Q403 -34 380 -75T321 -148T232 -196T110 -199L97 -99Q158 -85 193 -61T248 6L282 81Q293 105 301 140T315 201L389 497H583ZM195 497L270 201Q274 180 277 158T284 115H312L256 0H214Q193
0 178 12T156 43L2 497H195Z" />
<glyph unicode="z" glyph-name="z" horiz-adv-x="534" d="M285 378L495 377L244 119L34 120L285 378ZM500 120V0H34V120H500ZM495 497V377H39V497H495Z" />
<glyph unicode="{" glyph-name="braceleft" horiz-adv-x="350" d="M318 768V657Q278 657 264 649T249 608V471Q250 429 241 400T208 353T139 328Q184 316 208 297T243 251T253 189V-8Q253 -40 267 -47T322 -54V-165Q236 -178 183 -162T104 -109T79 -22V208Q79
231 74 241T58 257T27 271V385Q48 392 58 396T71 413T75 452V625Q75 676 100 712T178 765T318 768Z" />
<glyph unicode="|" glyph-name="bar" horiz-adv-x="269" d="M198 781V-169H71V781H198Z" />
<glyph unicode="}" glyph-name="braceright" horiz-adv-x="350" d="M32 768Q118 781 171 765T250 713T275 625V452Q275 425 278 413T292 397T323 385V271Q305 263 293 258T276 242T271 208V-22Q271 -72 246 -109T168 -162T28 -165V-54Q68 -54 83 -47T98 -8V189Q99
224 108 250T142 296T211 328Q167 335 143 352T110 399T102 471V608Q102 641 87 649T32 657V768Z" />
<glyph unicode="~" glyph-name="asciitilde" horiz-adv-x="506" d="M135 370Q155 369 184 363T245 348T304 332T344 323Q367 319 371 329T376 365H454Q468 284 442 245T370 207Q350 208 321 214T260 229T203 244T161 254Q138 258 134 248T130 212H52Q43 268 53
303T85 354T135 370Z" />
<glyph unicode="&#xa0;" glyph-name="uni00A0" horiz-adv-x="213" />
<glyph unicode="&#xa1;" glyph-name="exclamdown" horiz-adv-x="299" d="M221 291L240 69V-180H60V69L79 291H221ZM171 514Q207 514 220 501T234 451V407Q234 371 221 358T171 344H130Q94 344 81 357T67 407V451Q67 487 80 500T130 514H171Z" />
<glyph unicode="&#xa2;" glyph-name="cent" horiz-adv-x="534" d="M294 609Q322 609 357 606T428 596T492 575L474 469Q429 470 392 470T325 471Q281 471 256 461T221 425T211 347Q211 297 221 271T256 234T325 223Q341 223 366 223T422 226T483 231L500 124Q457
104 402 95T292 86Q196 86 139 111T57 194T32 347Q32 444 57 501T140 583T294 609ZM320 165L301 0H248L267 165H320ZM361 505L323 165H270L308 505H361ZM386 690L364 505H311L332 690H386Z" />
<glyph unicode="&#xa3;" glyph-name="sterling" horiz-adv-x="595" d="M318 703Q341 703 376 702T453 699T540 693L531 557Q516 557 505 557T476 558T430 558T348 558Q313 558 299 546T287 504L307 295Q310 249 301 221T273 174T233 138Q253 144 273 145T315 146H562V0H43V146Q96
171 110 209T120 295L103 512Q100 570 111 607T150 665T219 694T318 703ZM476 409L472 319H42L40 409H476Z" />
<glyph unicode="&#xa4;" glyph-name="currency" horiz-adv-x="579" d="M289 457Q261 457 238 443T201 406T187 353Q187 324 201 301T238 263T289 249Q316 249 339 263T377 300T391 353Q391 382 377 405T340 443T289 457ZM118 599L204 511L130 437L43 524L118 599ZM464
599L538 524L454 440L380 514L464 599ZM133 279L212 199L118 105L38 185L133 279ZM446 269L538 179L463 104L372 195L446 269ZM289 558Q347 558 393 530T467 456T495 352Q495 295 467 249T393 174T289 146Q233 146 186 174T111 248T83 352Q83 409 111 455T185 530T289
558Z" />
<glyph unicode="&#xa5;" glyph-name="yen" horiz-adv-x="689" d="M667 690L434 216H255L22 690H215L315 460Q325 439 329 414T339 367H351Q356 389 361 414T375 460L474 690H667ZM439 326V0H251V326H439ZM593 224V135H99L97 224H593ZM593 350V261H99L97 350H593Z" />
<glyph unicode="&#xa6;" glyph-name="brokenbar" horiz-adv-x="271" d="M199 781V381H72V781H199ZM199 231V-169H72V231H199Z" />
<glyph unicode="&#xa7;" glyph-name="section" horiz-adv-x="560" d="M187 343Q187 306 192 284T216 248T267 214L418 133Q440 121 463 104T504 56T521 -31Q521 -95 494 -129T413 -176T283 -189Q259 -189 218 -188T132 -184T51 -177L63 -52Q90 -53 112 -54T161
-55T228 -55Q261 -55 282 -53T314 -45T326 -24Q330 -4 315 8T279 30L153 93Q94 122 68 157T41 238T62 343H187ZM278 704Q302 704 342 703T428 699T509 692L497 567Q472 569 450 569T401 569T333 569Q300 569 279 567T247 560T234 540Q231 519 246 507T282 485L408
422Q468 394 494 358T520 277T499 172H373Q374 209 369 230T346 267T293 301L142 382Q121 394 98 411T57 459T40 546Q40 609 66 643T146 691T278 704Z" />
<glyph unicode="&#xa8;" glyph-name="dieresis" horiz-adv-x="430" d="M338 714Q374 714 374 678V617Q374 581 338 581H279Q243 581 243 617V678Q243 714 279 714H338ZM152 714Q187 714 187 678V617Q187 581 152 581H92Q57 581 57 617V678Q57 714 92 714H152Z" />
<glyph unicode="&#xa9;" glyph-name="copyright" horiz-adv-x="794" d="M397 704Q474 704 539 678T654 603T732 489T760 345Q760 267 732 201T655 87T539 13T397 -14Q321 -14 255 12T140 87T62 201T34 345Q34 423 62 489T139 603T255 677T397 704ZM401 547Q451
547 479 544T539 532L529 436Q497 436 471 436T401 437Q378 437 366 430T350 403T345 346Q345 309 349 290T366 263T401 255Q447 255 477 256T539 259L549 164Q516 154 484 150T402 145Q330 145 288 164T226 228T207 346Q207 420 226 464T288 528T401 547ZM397
618Q341 618 292 598T205 541T146 455T124 345Q124 286 145 236T205 149T292 92T397 72Q454 72 503 92T590 149T649 236T670 345Q670 404 649 454T591 541T504 598T397 618Z" />
<glyph unicode="&#xaa;" glyph-name="ordfeminine" horiz-adv-x="435" d="M245 619Q314 619 350 591T387 486V276H282L264 348L256 361V487Q256 505 247 513T215 522Q187 522 149 521T68 518L56 603Q81 608 115 611T184 617T245 619ZM337 481L336 428L195 415Q179
414 172 408T165 392V382Q165 371 173 365T197 358Q215 358 233 366T269 386T297 412V368Q293 357 282 340T253 306T210 278T150 267Q104 267 71 291T38 361V395Q38 435 66 458T145 481H337Z" />
<glyph unicode="&#xab;" glyph-name="guillemotleft" horiz-adv-x="537" d="M408 468L503 407L408 251L503 89L408 29L249 232V270L408 468ZM185 468L280 407L185 251L280 89L185 29L26 232V270L185 468Z" />
<glyph unicode="&#xac;" glyph-name="logicalnot" horiz-adv-x="575" d="M521 369V243H48V369H521ZM521 359V137L386 136V350L521 359Z" />
<glyph unicode="&#xad;" glyph-name="uni00AD" horiz-adv-x="395" d="M345 311V201H50V311H345Z" />
<glyph unicode="&#xae;" glyph-name="registered" horiz-adv-x="507" d="M254 704Q316 704 366 674T446 594T476 482Q476 420 446 370T366 289T254 259Q192 259 142 289T61 369T31 482Q31 544 61 594T141 674T254 704ZM229 595V376H155V595H229ZM254 653Q207 653
168 630T106 568T83 482Q83 434 106 395T168 333T254 309Q301 309 339 332T400 395T424 482Q424 529 401 567T339 629T254 653ZM259 598Q313 598 338 584T363 532Q363 513 352 498T311 480V478Q323 477 335 471T352 443L372 376H293L278 440Q274 450 269 452T255
455Q214 455 195 455T160 456V501H256Q275 501 281 506T287 524Q287 537 281 541T256 545Q221 545 196 545T161 544L155 595Q179 597 200 597T259 598Z" />
<glyph unicode="&#xaf;" glyph-name="overscore" horiz-adv-x="400" d="M355 704V594H45V704H355Z" />
<glyph unicode="&#xb0;" glyph-name="degree" horiz-adv-x="334" d="M167 704Q205 704 237 686T287 637T306 568Q306 530 287 499T237 449T167 430Q129 430 97 448T46 498T27 568Q27 606 46 636T97 685T167 704ZM167 622Q146 622 130 607T114 567Q114 552 121
539T141 519T167 512Q182 512 193 519T212 539T220 567Q220 592 205 607T167 622Z" />
<glyph unicode="&#xb1;" glyph-name="plusminus" horiz-adv-x="565" d="M514 448V315H51V448H514ZM514 165V31H51V165H514ZM349 562V202H216V562H349Z" />
<glyph unicode="&#xb2;" glyph-name="uni00B2" horiz-adv-x="427" d="M201 779Q260 779 299 771T358 738T377 666Q377 644 360 615T309 555L212 470Q227 474 240 476T270 477L389 474L388 360H42V429Q42 446 46 459T61 485L147 562Q170 582 186 597T212 625T226
647Q230 659 219 662T187 665Q154 665 125 665T50 664L46 767Q95 775 136 777T201 779Z" />
<glyph unicode="&#xb3;" glyph-name="uni00B3" horiz-adv-x="410" d="M204 781Q294 781 329 761T364 685Q364 638 349 612T286 580V578Q337 571 356 548T376 474Q377 407 339 379T206 351Q163 351 120 354T37 363L42 462Q72 461 92 461T129 460T166 460Q209 460
221 466T233 494Q233 506 230 513T216 523T183 527L96 530V613L183 616Q204 617 213 620T226 630T229 647Q229 664 220 668T179 673Q144 673 110 673T51 673L47 769Q87 775 126 778T204 781Z" />
<glyph unicode="&#xb4;" glyph-name="acute" horiz-adv-x="374" d="M261 743L333 626L93 519L42 594L261 743Z" />
<glyph unicode="&#xb5;" glyph-name="uni00B5" horiz-adv-x="623" d="M232 497V196Q232 160 243 150T274 140Q297 140 319 158T355 212T370 302L373 88Q360 60 338 37T288 0T224 -14Q177 -14 138 -1T75 44T51 130V497H232ZM232 110L231 -67L209 -185H51V185L232
110ZM551 497V150Q551 134 553 124T560 108T577 103H607L614 13Q588 3 554 -4T483 -12Q437 -12 405 9T373 80V88L370 104V497H551Z" />
<glyph unicode="&#xb6;" glyph-name="paragraph" horiz-adv-x="615" d="M355 702Q392 702 443 699T537 685L531 582Q506 587 473 589T407 593T350 594L269 200Q138 210 82 268T25 450Q25 543 58 598T163 677T355 702ZM372 685V-210H259V685H372ZM537 685V0H424V685H537Z" />
<glyph unicode="&#xb7;" glyph-name="middot" horiz-adv-x="258" d="M150 343Q186 343 199 329T213 280V236Q213 201 200 187T150 173H108Q72 173 59 187T45 236V280Q45 315 58 329T108 343H150Z" />
<glyph unicode="&#xb8;" glyph-name="cedilla" horiz-adv-x="256" d="M76 -35Q134 -29 170 -30T222 -47T237 -100Q236 -154 206 -188T127 -235T19 -241L38 -171Q73 -171 98 -161T127 -116Q129 -103 117 -102T59 -100L76 -35Z" />
<glyph unicode="&#xb9;" glyph-name="uni00B9" horiz-adv-x="315" d="M260 772V360H122V609Q122 622 122 635T127 664L27 646L11 733L122 772H260Z" />
<glyph unicode="&#xba;" glyph-name="ordmasculine" horiz-adv-x="437" d="M219 619Q320 619 361 579T403 442Q403 378 385 340T327 285T219 268Q117 268 76 307T34 442Q34 539 75 579T219 619ZM219 528Q190 528 181 512T172 442Q172 390 181 374T219 358Q247
358 256 374T265 442Q265 496 256 512T219 528Z" />
<glyph unicode="&#xbb;" glyph-name="guillemotright" horiz-adv-x="537" d="M129 468L34 407L129 251L34 89L129 29L288 232V270L129 468ZM352 468L257 407L352 251L257 89L352 29L511 232V270L352 468Z" />
<glyph unicode="&#xbc;" glyph-name="onequarter" horiz-adv-x="926" d="M674 690L274 0H163L563 690H674ZM267 690V276H128V526Q128 540 129 553T133 581L39 564L23 650L128 690H267ZM732 414L640 184Q638 177 641 174T652 171H898V93L850 81H547Q519 81 504
100T500 146L608 414H732ZM852 332V0H724V269L746 332H852Z" />
<glyph unicode="&#xbd;" glyph-name="onehalf" horiz-adv-x="930" d="M673 690L272 0H161L561 690H673ZM267 690V276H128V526Q128 540 129 553T133 581L39 564L23 650L128 690H267ZM709 421Q769 421 808 413T866 380T885 308Q885 286 868 256T818 197L722 111Q738
115 751 116T780 117L896 115V0H552V70Q552 87 556 100T572 126L656 203Q688 232 708 254T734 289Q738 301 728 304T695 307Q662 307 634 307T560 307L556 408Q605 417 646 419T709 421Z" />
<glyph unicode="&#xbe;" glyph-name="threequarters" horiz-adv-x="1003" d="M756 690L355 0H244L644 690H756ZM202 696Q291 696 325 676T359 599Q359 553 345 527T281 494V492Q333 485 351 462T370 388Q372 321 334 293T203 264Q161 264 119 267T36 276L40 375Q70
374 90 374T128 373T163 373Q205 373 216 379T228 408Q228 421 225 429T211 440T180 444H95V527L180 528Q200 528 209 531T221 542T224 561Q224 578 216 582T176 588Q141 589 108 589T49 589L45 684Q85 690 124 693T202 696ZM811 414L719 184Q716 177 719 174T731
171H976V93L929 81H626Q598 81 583 100T579 146L687 414H811ZM930 332V0H802V269L824 332H930Z" />
<glyph unicode="&#xbf;" glyph-name="questiondown" horiz-adv-x="524" d="M349 290Q352 239 340 200T309 131T269 76T234 32T217 -6Q213 -32 230 -42T290 -53Q341 -53 373 -53T432 -53T494 -51L499 -172Q469 -177 445 -182T394 -191T332 -196T245 -198Q134 -198
79 -160T24 -43Q24 1 41 32T83 90T134 143T181 206T206 290H349ZM299 514Q335 514 348 501T362 451V407Q362 371 349 358T299 344H258Q222 344 209 357T195 407V451Q195 487 208 500T258 514H299Z" />
<glyph unicode="&#xc0;" glyph-name="Agrave" horiz-adv-x="669" d="M421 690Q444 690 461 677T485 641L674 0H482L361 476Q357 493 354 512T348 549H321Q319 532 316 513T308 476L187 0H-5L184 641Q190 664 207 677T248 690H421ZM516 299V164H153V299H516ZM207
960L426 811L376 736L135 842L207 960Z" />
<glyph unicode="&#xc1;" glyph-name="Aacute" horiz-adv-x="669" d="M421 690Q444 690 461 677T485 641L674 0H482L361 476Q357 493 354 512T348 549H321Q319 532 316 513T308 476L187 0H-5L184 641Q190 664 207 677T248 690H421ZM516 299V164H153V299H516ZM460
946L532 829L292 722L241 797L460 946Z" />
<glyph unicode="&#xc2;" glyph-name="Acircumflex" horiz-adv-x="669" d="M421 690Q444 690 461 677T485 641L674 0H482L361 476Q357 493 354 512T348 549H321Q319 532 316 513T308 476L187 0H-5L184 641Q190 664 207 677T248 690H421ZM516 299V164H153V299H516ZM402
921L537 783L493 721L340 815H332L178 721L132 789L271 921H402Z" />
<glyph unicode="&#xc3;" glyph-name="Atilde" horiz-adv-x="669" d="M421 690Q444 690 461 677T485 641L674 0H482L361 476Q357 493 354 512T348 549H321Q319 532 316 513T308 476L187 0H-5L184 641Q190 664 207 677T248 690H421ZM516 299V164H153V299H516ZM236
909Q261 907 282 902T323 889T362 874T400 864Q425 860 429 869T434 904H510Q524 827 498 786T427 748Q393 751 364 760T310 780T261 794Q238 798 234 788T229 753H153Q143 808 153 843T187 895T236 909Z" />
<glyph unicode="&#xc4;" glyph-name="Adieresis" horiz-adv-x="669" d="M421 690Q444 690 461 677T485 641L674 0H482L361 476Q357 493 354 512T348 549H321Q319 532 316 513T308 476L187 0H-5L184 641Q190 664 207 677T248 690H421ZM516 299V164H153V299H516ZM457
895Q493 895 493 859V798Q493 762 457 762H398Q362 762 362 798V859Q362 895 398 895H457ZM271 895Q306 895 306 859V798Q306 762 271 762H211Q176 762 176 798V859Q176 895 211 895H271Z" />
<glyph unicode="&#xc5;" glyph-name="Aring" horiz-adv-x="669" d="M421 690Q444 690 461 677T485 641L674 0H482L361 476Q357 493 354 512T348 549H321Q319 532 316 513T308 476L187 0H-5L184 641Q190 664 207 677T248 690H421ZM516 299V164H153V299H516ZM336
954Q370 954 398 938T443 895T460 834Q460 800 443 773T398 729T336 713Q302 713 274 729T229 772T212 834Q212 867 229 894T274 938T336 954ZM336 882Q316 882 303 868T289 833Q289 812 302 799T336 785Q356 785 370 798T384 833Q384 854 370 868T336 882Z" />
<glyph unicode="&#xc6;" glyph-name="AE" horiz-adv-x="945" d="M574 692Q669 692 747 691T912 682L903 550H663Q643 550 630 538T617 507V183Q617 163 629 152T663 140H903L912 8Q835 -1 750 -2T581 -3Q517 -3 480 38T442 145V512Q442 529 447 546T461 576H448Q440
567 432 554T417 528L177 0H-15L249 545Q268 585 291 613T350 658T440 684T574 692ZM486 307V176H141L143 307H486ZM452 416L868 415V296H452V416Z" />
<glyph unicode="&#xc7;" glyph-name="Ccedilla" horiz-adv-x="597" d="M342 702Q394 702 430 699T497 691T560 677L546 539Q512 541 483 541T421 542T342 543Q301 543 278 526T245 466T236 345Q236 267 245 224T277 164T342 147Q415 147 463 149T561 156L575 19Q525
2 473 -5T342 -12Q231 -12 165 22T69 135T39 345Q39 477 68 555T164 667T342 702ZM261 -62Q319 -56 355 -57T407 -74T422 -127Q421 -181 391 -215T312 -262T204 -268L223 -198Q258 -198 283 -188T312 -143Q314 -130 302 -129T244 -127L261 -62Z" />
<glyph unicode="&#xc8;" glyph-name="Egrave" horiz-adv-x="588" d="M210 693Q268 693 328 693T447 691T555 682L546 548H288Q266 548 254 537T242 505V185Q242 165 254 154T288 142H546L555 8Q506 3 448 1T329 -2T210 -3Q141 -3 98 38T55 145V545Q55 612 98 652T210
693ZM73 419H510V292H73V419ZM191 965L410 816L360 741L119 847L191 965Z" />
<glyph unicode="&#xc9;" glyph-name="Eacute" horiz-adv-x="588" d="M210 693Q268 693 328 693T447 691T555 682L546 548H288Q266 548 254 537T242 505V185Q242 165 254 154T288 142H546L555 8Q506 3 448 1T329 -2T210 -3Q141 -3 98 38T55 145V545Q55 612 98 652T210
693ZM73 419H510V292H73V419ZM444 951L516 834L276 727L225 802L444 951Z" />
<glyph unicode="&#xca;" glyph-name="Ecircumflex" horiz-adv-x="588" d="M210 693Q268 693 328 693T447 691T555 682L546 548H288Q266 548 254 537T242 505V185Q242 165 254 154T288 142H546L555 8Q506 3 448 1T329 -2T210 -3Q141 -3 98 38T55 145V545Q55 612
98 652T210 693ZM73 419H510V292H73V419ZM386 926L521 788L477 726L324 820H316L162 726L116 794L255 926H386Z" />
<glyph unicode="&#xcb;" glyph-name="Edieresis" horiz-adv-x="588" d="M210 693Q268 693 328 693T447 691T555 682L546 548H288Q266 548 254 537T242 505V185Q242 165 254 154T288 142H546L555 8Q506 3 448 1T329 -2T210 -3Q141 -3 98 38T55 145V545Q55 612 98
652T210 693ZM73 419H510V292H73V419ZM441 899Q477 899 477 863V802Q477 766 441 766H382Q346 766 346 802V863Q346 899 382 899H441ZM255 899Q290 899 290 863V802Q290 766 255 766H195Q160 766 160 802V863Q160 899 195 899H255Z" />
<glyph unicode="&#xcc;" glyph-name="Igrave" horiz-adv-x="308" d="M247 690V0H61V690H247ZM25 962L244 813L194 738L-47 844L25 962Z" />
<glyph unicode="&#xcd;" glyph-name="Iacute" horiz-adv-x="308" d="M247 690V0H61V690H247ZM278 948L350 831L110 724L59 799L278 948Z" />
<glyph unicode="&#xce;" glyph-name="Icircumflex" horiz-adv-x="308" d="M247 690V0H61V690H247ZM221 923L356 785L312 723L159 817H151L-3 723L-49 791L90 923H221Z" />
<glyph unicode="&#xcf;" glyph-name="Idieresis" horiz-adv-x="308" d="M247 690V0H61V690H247ZM275 896Q311 896 311 860V799Q311 763 275 763H216Q180 763 180 799V860Q180 896 216 896H275ZM89 896Q124 896 124 860V799Q124 763 89 763H29Q-6 763 -6 799V860Q-6
896 29 896H89Z" />
<glyph unicode="&#xd0;" glyph-name="Eth" horiz-adv-x="694" d="M360 405V313H10V405H360ZM345 700Q430 700 489 683T585 626T638 518T655 345Q655 241 639 173T586 64T490 7T345 -10Q262 -10 193 -7T61 0L138 135Q174 132 227 131T345 129Q388 129 412 147T447
212T457 345Q457 431 447 478T413 543T345 561Q284 561 237 561T144 561L61 690Q124 694 192 697T345 700ZM249 690V0H61V690H249Z" />
<glyph unicode="&#xd1;" glyph-name="Ntilde" horiz-adv-x="731" d="M671 690V66Q671 0 606 0H522Q492 0 478 14T448 55L279 349Q267 374 255 403T235 461H226Q230 432 232 402T235 343V0H60V624Q60 690 126 690H209Q239 690 253 676T283 635L445 352Q459 328
472 299T497 238H506Q503 269 501 299T499 359L498 690H671ZM277 910Q302 908 323 903T364 890T403 875T441 865Q466 861 470 870T475 905H551Q565 828 539 787T468 749Q434 752 405 761T351 781T302 795Q279 799 275 789T270 754H194Q184 809 194 844T228 896T277
910Z" />
<glyph unicode="&#xd2;" glyph-name="Ograve" horiz-adv-x="698" d="M349 704Q435 704 494 687T590 630T643 520T659 345Q659 240 643 171T590 61T494 3T349 -14Q264 -14 205 3T108 60T55 170T39 345Q39 451 55 520T108 629T204 687T349 704ZM349 561Q305 561
281 543T246 478T236 345Q236 259 246 212T280 147T349 129Q393 129 417 147T451 212T461 345Q461 431 452 478T418 543T349 561ZM219 962L438 813L388 738L147 844L219 962Z" />
<glyph unicode="&#xd3;" glyph-name="Oacute" horiz-adv-x="698" d="M349 704Q435 704 494 687T590 630T643 520T659 345Q659 240 643 171T590 61T494 3T349 -14Q264 -14 205 3T108 60T55 170T39 345Q39 451 55 520T108 629T204 687T349 704ZM349 561Q305 561
281 543T246 478T236 345Q236 259 246 212T280 147T349 129Q393 129 417 147T451 212T461 345Q461 431 452 478T418 543T349 561ZM472 963L544 846L304 739L253 814L472 963Z" />
<glyph unicode="&#xd4;" glyph-name="Ocircumflex" horiz-adv-x="698" d="M349 704Q435 704 494 687T590 630T643 520T659 345Q659 240 643 171T590 61T494 3T349 -14Q264 -14 205 3T108 60T55 170T39 345Q39 451 55 520T108 629T204 687T349 704ZM349 561Q305
561 281 543T246 478T236 345Q236 259 246 212T280 147T349 129Q393 129 417 147T451 212T461 345Q461 431 452 478T418 543T349 561ZM415 923L550 785L506 723L353 817H345L191 723L145 791L284 923H415Z" />
<glyph unicode="&#xd5;" glyph-name="Otilde" horiz-adv-x="698" d="M349 704Q435 704 494 687T590 630T643 520T659 345Q659 240 643 171T590 61T494 3T349 -14Q264 -14 205 3T108 60T55 170T39 345Q39 451 55 520T108 629T204 687T349 704ZM349 561Q305 561
281 543T246 478T236 345Q236 259 246 212T280 147T349 129Q393 129 417 147T451 212T461 345Q461 431 452 478T418 543T349 561ZM248 910Q273 908 294 903T335 890T374 875T412 865Q437 861 441 870T446 905H522Q536 828 510 787T439 749Q405 752 376 761T322
781T273 795Q250 799 246 789T241 754H165Q155 809 165 844T199 896T248 910Z" />
<glyph unicode="&#xd6;" glyph-name="Odieresis" horiz-adv-x="698" d="M349 704Q435 704 494 687T590 630T643 520T659 345Q659 240 643 171T590 61T494 3T349 -14Q264 -14 205 3T108 60T55 170T39 345Q39 451 55 520T108 629T204 687T349 704ZM349 561Q305 561
281 543T246 478T236 345Q236 259 246 212T280 147T349 129Q393 129 417 147T451 212T461 345Q461 431 452 478T418 543T349 561ZM469 896Q505 896 505 860V799Q505 763 469 763H410Q374 763 374 799V860Q374 896 410 896H469ZM283 896Q318 896 318 860V799Q318
763 283 763H223Q188 763 188 799V860Q188 896 223 896H283Z" />
<glyph unicode="&#xd7;" glyph-name="multiply" horiz-adv-x="501" d="M394 507L25 178L109 78L479 406L394 507ZM109 507L25 405L394 78L479 178L109 507Z" />
<glyph unicode="&#xd8;" glyph-name="Oslash" horiz-adv-x="698" d="M504 755L559 730L186 -68L131 -43L504 755ZM349 704Q435 704 494 687T590 630T643 520T659 345Q659 240 643 171T590 61T494 3T349 -14Q264 -14 205 3T108 60T55 170T39 345Q39 451 55 520T108
629T204 687T349 704ZM349 561Q305 561 281 543T246 478T236 345Q236 259 246 212T280 147T349 129Q393 129 417 147T451 212T461 345Q461 431 452 478T418 543T349 561Z" />
<glyph unicode="&#xd9;" glyph-name="Ugrave" horiz-adv-x="696" d="M641 690V280Q641 173 614 109T524 15T358 -14Q246 -14 180 15T84 108T55 280V690H243V280Q243 221 252 188T284 142T348 129Q389 129 412 142T444 188T453 280V690H641ZM220 962L439 813L389
738L148 844L220 962Z" />
<glyph unicode="&#xda;" glyph-name="Uacute" horiz-adv-x="696" d="M641 690V280Q641 173 614 109T524 15T358 -14Q246 -14 180 15T84 108T55 280V690H243V280Q243 221 252 188T284 142T348 129Q389 129 412 142T444 188T453 280V690H641ZM473 948L545 831L305
724L254 799L473 948Z" />
<glyph unicode="&#xdb;" glyph-name="Ucircumflex" horiz-adv-x="696" d="M641 690V280Q641 173 614 109T524 15T358 -14Q246 -14 180 15T84 108T55 280V690H243V280Q243 221 252 188T284 142T348 129Q389 129 412 142T444 188T453 280V690H641ZM416 923L551 785L507
723L354 817H346L192 723L146 791L285 923H416Z" />
<glyph unicode="&#xdc;" glyph-name="Udieresis" horiz-adv-x="696" d="M641 690V280Q641 173 614 109T524 15T358 -14Q246 -14 180 15T84 108T55 280V690H243V280Q243 221 252 188T284 142T348 129Q389 129 412 142T444 188T453 280V690H641ZM471 896Q507 896
507 860V799Q507 763 471 763H412Q376 763 376 799V860Q376 896 412 896H471ZM285 896Q320 896 320 860V799Q320 763 285 763H225Q190 763 190 799V860Q190 896 225 896H285Z" />
<glyph unicode="&#xdd;" glyph-name="Yacute" horiz-adv-x="635" d="M640 690L407 212H228L-5 690H189L289 456Q298 435 302 411T312 364H324Q328 386 333 411T347 457L446 690H640ZM412 321V0H224V321H412ZM442 945L514 828L274 721L223 796L442 945Z" />
<glyph unicode="&#xde;" glyph-name="Thorn" horiz-adv-x="624" d="M334 576Q436 576 494 556T576 485T600 344Q600 254 577 205T501 135T360 115Q312 115 266 119T180 131T111 147T71 162L74 250Q135 250 200 250T330 250Q362 251 380 258T405 286T412 344Q412
383 405 403T380 432T330 440Q235 440 168 439T75 435L61 566Q104 571 141 573T224 575T334 576ZM248 690V0H61V690H248Z" />
<glyph unicode="&#xdf;" glyph-name="germandbls" horiz-adv-x="724" d="M362 737Q463 737 517 722T592 671T613 577Q613 556 609 539T594 504T558 460Q543 446 531 433T511 408T503 382Q503 363 521 349T564 315L627 272Q658 248 676 230T703 192T711 138Q711
88 693 55T631 6T511 -11Q471 -11 431 -8T335 0L346 114Q375 113 404 113T468 112Q491 113 504 114T522 122T527 144Q527 158 517 170T490 196T451 225L404 251Q371 275 352 302T332 369Q332 394 341 411T368 445T407 487Q430 514 439 529T448 566Q448 584 441
594T417 608T364 613Q329 613 310 608T285 586T278 539V0H96V561Q96 612 111 646T158 701T240 729T362 737ZM185 497V384H13V493L97 497H185Z" />
<glyph unicode="&#xe0;" glyph-name="agrave" horiz-adv-x="581" d="M327 511Q394 511 440 493T511 433T535 317V0H390L365 107L353 125V318Q352 349 338 362T285 376Q246 376 189 375T70 369L54 486Q91 493 140 498T240 507T327 511ZM463 305L462 213H249Q226
212 216 202T205 173V154Q205 135 217 125T255 114Q280 114 308 125T363 155T410 196V132Q402 116 386 92T343 44T280 3T194 -13Q149 -13 111 3T51 50T28 128V178Q28 238 70 271T186 305H463ZM167 789L386 640L336 565L95 671L167 789Z" />
<glyph unicode="&#xe1;" glyph-name="aacute" horiz-adv-x="581" d="M327 511Q394 511 440 493T511 433T535 317V0H390L365 107L353 125V318Q352 349 338 362T285 376Q246 376 189 375T70 369L54 486Q91 493 140 498T240 507T327 511ZM463 305L462 213H249Q226
212 216 202T205 173V154Q205 135 217 125T255 114Q280 114 308 125T363 155T410 196V132Q402 116 386 92T343 44T280 3T194 -13Q149 -13 111 3T51 50T28 128V178Q28 238 70 271T186 305H463ZM420 775L492 658L252 551L201 626L420 775Z" />
<glyph unicode="&#xe2;" glyph-name="acircumflex" horiz-adv-x="581" d="M327 511Q394 511 440 493T511 433T535 317V0H390L365 107L353 125V318Q352 349 338 362T285 376Q246 376 189 375T70 369L54 486Q91 493 140 498T240 507T327 511ZM463 305L462 213H249Q226
212 216 202T205 173V154Q205 135 217 125T255 114Q280 114 308 125T363 155T410 196V132Q402 116 386 92T343 44T280 3T194 -13Q149 -13 111 3T51 50T28 128V178Q28 238 70 271T186 305H463ZM363 750L498 612L454 550L301 644H293L139 550L93 618L232 750H363Z"
/>
<glyph unicode="&#xe3;" glyph-name="atilde" horiz-adv-x="581" d="M327 511Q394 511 440 493T511 433T535 317V0H390L365 107L353 125V318Q352 349 338 362T285 376Q246 376 189 375T70 369L54 486Q91 493 140 498T240 507T327 511ZM463 305L462 213H249Q226
212 216 202T205 173V154Q205 135 217 125T255 114Q280 114 308 125T363 155T410 196V132Q402 116 386 92T343 44T280 3T194 -13Q149 -13 111 3T51 50T28 128V178Q28 238 70 271T186 305H463ZM196 738Q221 736 242 731T283 718T322 703T360 693Q385 689 389 698T394
733H470Q484 656 458 615T387 577Q353 580 324 589T270 609T221 623Q198 627 194 617T189 582H113Q103 637 113 672T147 724T196 738Z" />
<glyph unicode="&#xe4;" glyph-name="adieresis" horiz-adv-x="581" d="M327 511Q394 511 440 493T511 433T535 317V0H390L365 107L353 125V318Q352 349 338 362T285 376Q246 376 189 375T70 369L54 486Q91 493 140 498T240 507T327 511ZM463 305L462 213H249Q226
212 216 202T205 173V154Q205 135 217 125T255 114Q280 114 308 125T363 155T410 196V132Q402 116 386 92T343 44T280 3T194 -13Q149 -13 111 3T51 50T28 128V178Q28 238 70 271T186 305H463ZM417 724Q453 724 453 688V627Q453 591 417 591H358Q322 591 322 627V688Q322
724 358 724H417ZM231 724Q266 724 266 688V627Q266 591 231 591H171Q136 591 136 627V688Q136 724 171 724H231Z" />
<glyph unicode="&#xe5;" glyph-name="aring" horiz-adv-x="581" d="M327 511Q394 511 440 493T511 433T535 317V0H390L365 107L353 125V318Q352 349 338 362T285 376Q246 376 189 375T70 369L54 486Q91 493 140 498T240 507T327 511ZM463 305L462 213H249Q226
212 216 202T205 173V154Q205 135 217 125T255 114Q280 114 308 125T363 155T410 196V132Q402 116 386 92T343 44T280 3T194 -13Q149 -13 111 3T51 50T28 128V178Q28 238 70 271T186 305H463ZM296 784Q330 784 358 768T403 725T420 664Q420 630 403 603T358 559T296
543Q262 543 234 559T189 602T172 664Q172 697 189 724T234 768T296 784ZM296 712Q276 712 263 698T249 663Q249 642 262 629T296 615Q316 615 330 628T344 663Q344 684 330 698T296 712Z" />
<glyph unicode="&#xe6;" glyph-name="ae" horiz-adv-x="883" d="M610 511Q743 511 798 467T855 337Q856 291 839 262T783 218T677 204H415V295H627Q661 295 671 305T680 341Q680 370 666 380T616 390Q580 391 561 382T534 346T527 265Q527 211 535 182T567 141T634
129Q664 129 715 131T825 140L842 30Q810 14 773 5T695 -8T613 -12Q515 -12 456 16T371 101T344 246Q344 344 370 402T455 485T610 511ZM456 303L455 211L247 213Q226 212 216 202T205 173V154Q205 135 217 125T253 114Q277 114 304 125T357 155T403 197L411 125Q403
110 387 87T344 41T280 3T191 -13Q146 -13 109 3T50 50T28 128V178Q28 236 69 269T183 303H456ZM323 511Q389 511 434 493T503 433T527 317V228H344V318Q344 349 330 362T280 376Q242 376 186 375T69 369L53 486Q89 493 138 498T236 507T323 511Z" />
<glyph unicode="&#xe7;" glyph-name="ccedilla" horiz-adv-x="519" d="M292 511Q321 511 356 508T426 498T489 477L471 364Q426 364 390 364T323 365Q285 365 263 356T232 321T223 249Q223 203 232 178T263 143T323 133Q340 133 365 133T420 135T480 140L497 26Q454
5 400 -3T290 -12Q196 -12 139 13T57 96T32 249Q32 346 57 403T140 485T292 511ZM214 -51Q272 -45 308 -46T360 -63T375 -116Q374 -170 344 -204T265 -251T157 -257L176 -187Q211 -187 236 -177T265 -132Q267 -119 255 -118T197 -116L214 -51Z" />
<glyph unicode="&#xe8;" glyph-name="egrave" horiz-adv-x="578" d="M302 511Q436 511 493 467T550 337Q551 268 512 236T374 204H102V295H323Q357 295 366 305T376 341Q375 370 360 380T308 390Q273 391 255 382T229 346T222 265Q222 211 230 182T261 141T325
129Q357 129 409 131T520 140L537 30Q505 14 467 5T387 -8T305 -12Q205 -12 145 16T59 101T32 246Q32 344 59 402T145 485T302 511ZM176 783L395 634L345 559L104 665L176 783Z" />
<glyph unicode="&#xe9;" glyph-name="eacute" horiz-adv-x="578" d="M302 511Q436 511 493 467T550 337Q551 268 512 236T374 204H102V295H323Q357 295 366 305T376 341Q375 370 360 380T308 390Q273 391 255 382T229 346T222 265Q222 211 230 182T261 141T325
129Q357 129 409 131T520 140L537 30Q505 14 467 5T387 -8T305 -12Q205 -12 145 16T59 101T32 246Q32 344 59 402T145 485T302 511ZM429 769L501 652L261 545L210 620L429 769Z" />
<glyph unicode="&#xea;" glyph-name="ecircumflex" horiz-adv-x="578" d="M302 511Q436 511 493 467T550 337Q551 268 512 236T374 204H102V295H323Q357 295 366 305T376 341Q375 370 360 380T308 390Q273 391 255 382T229 346T222 265Q222 211 230 182T261 141T325
129Q357 129 409 131T520 140L537 30Q505 14 467 5T387 -8T305 -12Q205 -12 145 16T59 101T32 246Q32 344 59 402T145 485T302 511ZM372 744L507 606L463 544L310 638H302L148 544L102 612L241 744H372Z" />
<glyph unicode="&#xeb;" glyph-name="edieresis" horiz-adv-x="578" d="M302 511Q436 511 493 467T550 337Q551 268 512 236T374 204H102V295H323Q357 295 366 305T376 341Q375 370 360 380T308 390Q273 391 255 382T229 346T222 265Q222 211 230 182T261 141T325
129Q357 129 409 131T520 140L537 30Q505 14 467 5T387 -8T305 -12Q205 -12 145 16T59 101T32 246Q32 344 59 402T145 485T302 511ZM426 718Q462 718 462 682V621Q462 585 426 585H367Q331 585 331 621V682Q331 718 367 718H426ZM240 718Q275 718 275 682V621Q275
585 240 585H180Q145 585 145 621V682Q145 718 180 718H240Z" />
<glyph unicode="&#xec;" glyph-name="igrave" horiz-adv-x="292" d="M237 497V0H55V497H237ZM271 783L490 634L440 559L199 665L271 783Z" />
<glyph unicode="&#xed;" glyph-name="iacute" horiz-adv-x="292" d="M237 497V0H55V497H237ZM268 769L340 652L100 545L49 620L268 769Z" />
<glyph unicode="&#xee;" glyph-name="icircumflex" horiz-adv-x="292" d="M237 497V0H55V497H237ZM467 744L602 606L558 544L405 638H397L243 544L197 612L336 744H467Z" />
<glyph unicode="&#xef;" glyph-name="idieresis" horiz-adv-x="292" d="M237 497V0H55V497H237ZM521 718Q557 718 557 682V621Q557 585 521 585H462Q426 585 426 621V682Q426 718 462 718H521ZM335 718Q370 718 370 682V621Q370 585 335 585H275Q240 585 240 621V682Q240
718 275 718H335Z" />
<glyph unicode="&#xf0;" glyph-name="eth" horiz-adv-x="594" d="M142 698Q224 703 290 688T406 638T490 552T541 434T558 289Q558 207 543 150T496 56T414 3T292 -14Q159 -14 96 41T33 215Q33 295 54 347T124 426T254 452Q280 452 314 447T381 426T433 376L425
303Q402 314 369 320T295 326Q270 326 254 318T231 287T224 218Q224 157 239 136T294 114Q326 114 341 129T362 182T368 289Q368 359 361 410T337 497T293 552T224 580T127 583L142 698ZM428 729L475 673L243 475L194 531L428 729Z" />
<glyph unicode="&#xf1;" glyph-name="ntilde" horiz-adv-x="612" d="M420 511Q564 511 564 372V0H382V315Q382 339 373 348T339 357Q314 357 286 350T214 324L205 418Q257 464 312 487T420 511ZM195 497L217 397L233 384V0H51V497H195ZM210 732Q235 730 256 725T297
712T336 697T374 687Q399 683 403 692T408 727H484Q498 650 472 609T401 571Q367 574 338 583T284 603T235 617Q212 621 208 611T203 576H127Q117 631 127 666T161 718T210 732Z" />
<glyph unicode="&#xf2;" glyph-name="ograve" horiz-adv-x="601" d="M301 511Q399 511 458 486T543 403T569 248Q569 152 543 96T458 14T301 -12Q203 -12 144 13T59 95T33 248Q33 345 59 402T144 485T301 511ZM301 384Q270 384 254 373T230 333T223 248Q223 193
230 164T253 125T301 114Q332 114 349 124T372 164T379 248Q379 304 373 333T349 373T301 384ZM172 775L391 626L341 551L100 657L172 775Z" />
<glyph unicode="&#xf3;" glyph-name="oacute" horiz-adv-x="601" d="M301 511Q399 511 458 486T543 403T569 248Q569 152 543 96T458 14T301 -12Q203 -12 144 13T59 95T33 248Q33 345 59 402T144 485T301 511ZM301 384Q270 384 254 373T230 333T223 248Q223 193
230 164T253 125T301 114Q332 114 349 124T372 164T379 248Q379 304 373 333T349 373T301 384ZM425 761L497 644L257 537L206 612L425 761Z" />
<glyph unicode="&#xf4;" glyph-name="ocircumflex" horiz-adv-x="601" d="M301 511Q399 511 458 486T543 403T569 248Q569 152 543 96T458 14T301 -12Q203 -12 144 13T59 95T33 248Q33 345 59 402T144 485T301 511ZM301 384Q270 384 254 373T230 333T223 248Q223
193 230 164T253 125T301 114Q332 114 349 124T372 164T379 248Q379 304 373 333T349 373T301 384ZM368 991L503 853L459 791L306 885H298L144 791L98 859L237 991H368Z" />
<glyph unicode="&#xf5;" glyph-name="otilde" horiz-adv-x="601" d="M301 511Q399 511 458 486T543 403T569 248Q569 152 543 96T458 14T301 -12Q203 -12 144 13T59 95T33 248Q33 345 59 402T144 485T301 511ZM301 384Q270 384 254 373T230 333T223 248Q223 193
230 164T253 125T301 114Q332 114 349 124T372 164T379 248Q379 304 373 333T349 373T301 384ZM201 723Q226 721 247 716T288 703T327 688T365 678Q390 674 394 683T399 718H475Q489 641 463 600T392 562Q358 565 329 574T275 594T226 608Q203 612 199 602T194
567H118Q108 622 118 657T152 709T201 723Z" />
<glyph unicode="&#xf6;" glyph-name="odieresis" horiz-adv-x="601" d="M301 511Q399 511 458 486T543 403T569 248Q569 152 543 96T458 14T301 -12Q203 -12 144 13T59 95T33 248Q33 345 59 402T144 485T301 511ZM301 384Q270 384 254 373T230 333T223 248Q223
193 230 164T253 125T301 114Q332 114 349 124T372 164T379 248Q379 304 373 333T349 373T301 384ZM422 965Q458 965 458 929V868Q458 832 422 832H363Q327 832 327 868V929Q327 965 363 965H422ZM236 965Q271 965 271 929V868Q271 832 236 832H176Q141 832 141
868V929Q141 965 176 965H236Z" />
<glyph unicode="&#xf7;" glyph-name="divide" horiz-adv-x="543" d="M507 356V229H36V356H507ZM293 176Q331 176 345 162T359 109V84Q359 47 345 33T293 18H249Q211 18 197 32T182 84V109Q182 147 196 161T249 176H293ZM293 565Q331 565 345 551T359 498V473Q359
436 345 422T293 407H249Q211 407 197 421T182 473V498Q182 536 196 550T249 565H293Z" />
<glyph unicode="&#xf8;" glyph-name="oslash" horiz-adv-x="601" d="M430 589L474 567L169 -89L125 -68L430 589ZM301 511Q399 511 458 486T543 403T569 248Q569 152 543 96T458 14T301 -12Q203 -12 144 13T59 95T33 248Q33 345 59 402T144 485T301 511ZM301 384Q270
384 254 373T230 333T223 248Q223 193 230 164T253 125T301 114Q332 114 349 124T372 164T379 248Q379 304 373 333T349 373T301 384Z" />
<glyph unicode="&#xf9;" glyph-name="ugrave" horiz-adv-x="605" d="M230 497V182Q229 159 240 149T276 139Q300 139 325 146T390 172L402 79Q350 32 299 9T193 -14Q48 -14 48 125V497H230ZM554 497V0H411L389 100L371 112V497H554ZM172 784L391 635L341 560L100
666L172 784Z" />
<glyph unicode="&#xfa;" glyph-name="uacute" horiz-adv-x="605" d="M230 497V182Q229 159 240 149T276 139Q300 139 325 146T390 172L402 79Q350 32 299 9T193 -14Q48 -14 48 125V497H230ZM554 497V0H411L389 100L371 112V497H554ZM425 770L497 653L257 546L206
621L425 770Z" />
<glyph unicode="&#xfb;" glyph-name="ucircumflex" horiz-adv-x="605" d="M230 497V182Q229 159 240 149T276 139Q300 139 325 146T390 172L402 79Q350 32 299 9T193 -14Q48 -14 48 125V497H230ZM554 497V0H411L389 100L371 112V497H554ZM368 745L503 607L459
545L306 639H298L144 545L98 613L237 745H368Z" />
<glyph unicode="&#xfc;" glyph-name="udieresis" horiz-adv-x="605" d="M230 497V182Q229 159 240 149T276 139Q300 139 325 146T390 172L402 79Q350 32 299 9T193 -14Q48 -14 48 125V497H230ZM554 497V0H411L389 100L371 112V497H554ZM422 719Q458 719 458 683V622Q458
586 422 586H363Q327 586 327 622V683Q327 719 363 719H422ZM236 719Q271 719 271 683V622Q271 586 236 586H176Q141 586 141 622V683Q141 719 176 719H236Z" />
<glyph unicode="&#xfd;" glyph-name="yacute" horiz-adv-x="585" d="M583 497L416 5Q403 -34 380 -75T321 -148T232 -196T110 -199L97 -99Q158 -85 193 -61T248 6L282 81Q293 105 301 140T315 201L389 497H583ZM195 497L270 201Q274 180 277 158T284 115H312L256
0H214Q193 0 178 12T156 43L2 497H195ZM421 769L493 652L253 545L202 620L421 769Z" />
<glyph unicode="&#xfe;" glyph-name="thorn" horiz-adv-x="610" d="M395 509Q493 509 534 441T575 243Q575 142 554 86T492 8T389 -14Q333 -14 282 2T197 58L213 134Q239 124 262 116T317 108Q343 108 358 117T381 156T388 242Q388 300 381 328T359 366T320 376Q292
376 272 368T229 345L201 419Q227 457 273 483T395 509ZM233 700V584Q233 551 231 516T227 449L233 437V71L227 59Q229 28 231 -7T233 -76V-185H51V700H233Z" />
<glyph unicode="&#xff;" glyph-name="ydieresis" horiz-adv-x="585" d="M583 497L416 5Q403 -34 380 -75T321 -148T232 -196T110 -199L97 -99Q158 -85 193 -61T248 6L282 81Q293 105 301 140T315 201L389 497H583ZM195 497L270 201Q274 180 277 158T284 115H312L256
0H214Q193 0 178 12T156 43L2 497H195ZM418 718Q454 718 454 682V621Q454 585 418 585H359Q323 585 323 621V682Q323 718 359 718H418ZM232 718Q267 718 267 682V621Q267 585 232 585H172Q137 585 137 621V682Q137 718 172 718H232Z" />
<glyph unicode="&#x2013;" glyph-name="endash" horiz-adv-x="543" d="M493 311V201H50V311H493Z" />
<glyph unicode="&#x2014;" glyph-name="emdash" horiz-adv-x="836" d="M786 311V201H50V311H786Z" />
<glyph unicode="&#x2018;" glyph-name="quoteleft" horiz-adv-x="220" d="M82 414Q48 414 35 426T20 473V533Q20 575 27 607T47 666T79 718L148 697Q138 666 135 636T131 573Q181 573 183 521L180 473Q179 439 166 427T119 414H82Z" />
<glyph unicode="&#x2019;" glyph-name="quoteright" horiz-adv-x="217" d="M137 709Q171 709 184 697T199 650V590Q199 548 192 516T172 458T140 405L71 426Q81 457 84 487T88 550Q38 550 36 602L39 650Q40 684 53 696T100 709H137Z" />
<glyph unicode="&#x201a;" glyph-name="quotesinglbase" horiz-adv-x="231" d="M148 159Q183 159 196 147T211 100V40Q211 -2 204 -34T184 -92T151 -145L81 -124Q91 -93 94 -63T98 0Q47 0 45 52L48 100Q49 134 62 146T110 159H148Z" />
<glyph unicode="&#x201c;" glyph-name="quotedblleft" horiz-adv-x="408" d="M82 414Q48 414 35 426T20 473V533Q20 575 27 607T47 666T79 718L148 697Q138 666 135 636T131 573Q181 573 183 521L180 473Q179 439 166 427T119 414H82ZM270 414Q236 414 223 426T208
473V533Q208 575 215 607T235 666T267 718L336 697Q326 666 323 636T319 573Q369 573 371 521L368 473Q367 439 354 427T307 414H270Z" />
<glyph unicode="&#x201d;" glyph-name="quotedblright" horiz-adv-x="406" d="M326 709Q360 709 373 697T388 650V590Q388 548 381 516T361 458T329 405L260 426Q270 457 273 487T277 550Q227 550 225 602L228 650Q229 684 242 696T289 709H326ZM137 709Q171 709
184 697T199 650V590Q199 548 192 516T172 458T140 405L71 426Q81 457 84 487T88 550Q38 550 36 602L39 650Q40 684 53 696T100 709H137Z" />
<glyph unicode="&#x201e;" glyph-name="quotedblbase" horiz-adv-x="418" d="M334 148Q368 148 381 136T396 89V29Q396 -13 389 -45T369 -103T337 -156L268 -135Q278 -104 281 -74T285 -11Q235 -11 233 41L236 89Q237 123 250 135T297 148H334ZM145 404Q179 404
192 392T207 345V285Q207 243 200 211T180 153T148 100L79 121Q89 152 92 182T96 245Q46 245 44 297L47 345Q48 379 61 391T108 404H145Z" />
<glyph unicode="&#x2022;" glyph-name="bullet" horiz-adv-x="377" d="M200 392Q263 392 288 367T313 279V263Q313 195 288 169T200 143H184Q116 143 90 169T64 263V279Q64 342 90 367T184 392H200Z" />
<glyph unicode="&#x2039;" glyph-name="guilsinglleft" horiz-adv-x="310" d="M183 468L278 407L183 251L278 89L183 29L24 232V270L183 468Z" />
<glyph unicode="&#x203a;" glyph-name="guilsinglright" horiz-adv-x="310" d="M127 468L285 270V232L126 29L31 89L127 251L32 407L127 468Z" />
</font>
</defs>
</svg>
